<?xml version="1.0" encoding="UTF-8"?>
<svg width="37px" height="33px" viewBox="0 0 37 33" version="1.1" xmlns="http://www.w3.org/2000/svg" xmlns:xlink="http://www.w3.org/1999/xlink">
    <!-- Generator: Sketch 55.2 (78181) - https://sketchapp.com -->
    <title>Icon/discussion</title>
    <desc>Created with Sketch.</desc>
    <g id="marcusfei-视觉" stroke="none" stroke-width="1" fill="none" fill-rule="evenodd" opacity="0.900000036">
        <g id="选择问题类型" transform="translate(-1086.000000, -480.000000)">
            <g id="Element-/-Question-Bar" transform="translate(966.000000, 354.000000)">
                <g id="Icon/discussion" transform="translate(112.000000, 116.000000)">
                    <rect id="矩形" x="0" y="0" width="52" height="52"></rect>
                    <path d="M11,11 L42,11 C43.1045695,11 44,11.8954305 44,13 L44,34.5384913 C44,35.6430608 43.1045695,36.5384913 42,36.5384913 L24.1750611,36.5384913 L19.088394,41.6320734 C18.7761868,41.944705 18.269655,41.945049 17.9570234,41.6328419 C17.8067592,41.4827817 17.7223244,41.2791338 17.7223244,41.0667723 L17.7223244,36.5384913 L11,36.5384913 C9.8954305,36.5384913 9,35.6430608 9,34.5384913 L9,13 C9,11.8954305 9.8954305,11 11,11 Z" id="路径-3" stroke="#07C160" stroke-width="1.6"></path>
                    <path d="M18.552939,25 C19.3813662,25 20.052939,24.3284271 20.052939,23.5 C20.052939,22.6715729 19.3813662,22 18.552939,22 C17.7245119,22 17.052939,22.6715729 17.052939,23.5 C17.052939,24.3284271 17.7245119,25 18.552939,25 Z" id="椭圆形" fill="#07C160"></path>
                    <path d="M26.552939,25 C27.3813662,25 28.052939,24.3284271 28.052939,23.5 C28.052939,22.6715729 27.3813662,22 26.552939,22 C25.7245119,22 25.052939,22.6715729 25.052939,23.5 C25.052939,24.3284271 25.7245119,25 26.552939,25 Z" id="椭圆形备份-4" fill="#07C160"></path>
                    <path d="M34.552939,25 C35.3813662,25 36.052939,24.3284271 36.052939,23.5 C36.052939,22.6715729 35.3813662,22 34.552939,22 C33.7245119,22 33.052939,22.6715729 33.052939,23.5 C33.052939,24.3284271 33.7245119,25 34.552939,25 Z" id="椭圆形备份-5" fill="#07C160"></path>
                </g>
            </g>
        </g>
    </g>
</svg>