<?xml version="1.0" encoding="UTF-8"?>
<svg width="66px" height="66px" viewBox="0 0 66 66" version="1.1" xmlns="http://www.w3.org/2000/svg" xmlns:xlink="http://www.w3.org/1999/xlink">
    <!-- Generator: Sketch 54.1 (76490) - https://sketchapp.com -->
    <title>publish_question_icon</title>
    <desc>Created with Sketch.</desc>
    <g id="publish_question_icon" stroke="none" stroke-width="1" fill="none" fill-rule="evenodd">
        <g id="Group-9-Copy" transform="translate(1.000000, 1.000000)">
            <circle id="Oval" fill="#FFC300" cx="32" cy="32" r="32"></circle>
            <path d="M32.8122271,22 C34.6572052,22 36.1615721,22.4715607 37.2969432,23.4701597 C38.4323144,24.4410199 39,25.7724853 39,27.4645559 C39,28.851499 38.6310044,29.9887924 37.9497817,30.876436 C37.6943231,31.1538246 36.871179,31.9027739 35.5087336,33.0678061 C34.9978166,33.4561502 34.628821,33.9277108 34.3733624,34.4270104 C34.0895197,34.9817876 33.9475983,35.5920426 33.9475983,36.2577753 L33.9475983,36.6461194 L30.6834061,36.6461194 L30.6834061,36.2577753 C30.6834061,35.2036985 30.8537118,34.2883161 31.2510917,33.5393668 C31.6200873,32.7904175 32.7270742,31.6253853 34.5720524,30.0165312 L34.9126638,29.6281872 C35.4235808,29.0179322 35.6790393,28.3521995 35.6790393,27.6587279 C35.6790393,26.7433455 35.3951965,26.0221351 34.8842795,25.4950967 C34.3449782,24.9680583 33.5786026,24.7184085 32.6135371,24.7184085 C31.3930131,24.7184085 30.5131004,25.0790137 29.9454148,25.827963 C29.4628821,26.4659569 29.2358079,27.3813393 29.2358079,28.5741104 L26,28.5741104 C26,26.5214346 26.5960699,24.9125806 27.8449782,23.7475483 C29.0655022,22.5825161 30.7117904,22 32.8122271,22 Z M32.30131,38.8114318 C32.9257642,38.8114318 33.4650655,39.0056038 33.8908297,39.3939479 C34.2882096,39.782292 34.5152838,40.2815915 34.5152838,40.8918465 C34.5152838,41.5021014 34.2882096,42.0291398 33.8908297,42.4174839 C33.4366812,42.805828 32.9257642,43 32.30131,43 C31.6768559,43 31.1659389,42.7780891 30.768559,42.389745 C30.3144105,42.001401 30.1157205,41.5021014 30.1157205,40.8918465 C30.1157205,40.2815915 30.3144105,39.782292 30.768559,39.3939479 C31.1659389,39.0056038 31.6768559,38.8114318 32.30131,38.8114318 Z" id="?" fill="#FFFFFF" fill-rule="nonzero"></path>
        </g>
    </g>
</svg>